# xmcd CD database file
#
# Track frame offsets:
#	150
#	19171
#	32652
#	55120
#	76904
#	87810
#	114740
#	138072
#	159055
#	183763
#	202453
#	219273
#	233080
#
# Disc length: 3480 seconds
#
# Revision: 2
# Processed by: cddbd v1.5.2PL0 Copyright (c) Steve Scherf et al.
# Submitted via: CDex 1.51
#
DISCID=9c0d960d
DTITLE=Various Artist - Selecta Track-56
DYEAR=1900
DGENRE=Blues
TTITLE0=Verve The - Bitter Sweet Symphony
TTITLE1=Boyzone - Father And Son
TTITLE2=Whitney Houston - I Have Nothing
TTITLE3=Verve The - Lucky Man
TTITLE4=Jim Carey - Cuban Pete
TTITLE5=ACDC - For Those About To Rock We Salute You
TTITLE6=ACDC - Sin City
TTITLE7=ACDC - Rock And Roll Ain't Noise Pollution
TTITLE8=Coldplay - Clocks
TTITLE9=Rose Royce - I Wanna Get Next To You
TTITLE10=Johnny Cash and Fiona Apple - Father And Son
TTITLE11=Johnny Nash - I Can See Clearly Now
TTITLE12=Stevie Wonder - Hppy Birthday 12"
EXTD=
EXTT0=
EXTT1=
EXTT2=
EXTT3=
EXTT4=
EXTT5=
EXTT6=
EXTT7=
EXTT8=
EXTT9=
EXTT10=
EXTT11=
EXTT12=
PLAYORDER=
